<?xml version="1.0" encoding="utf-8"?>
<!-- Generator: Adobe Illustrator 25.0.0, SVG Export Plug-In . SVG Version: 6.00 Build 0)  -->
<svg version="1.1" id="Layer_1" xmlns="http://www.w3.org/2000/svg" xmlns:xlink="http://www.w3.org/1999/xlink" x="0px" y="0px"
	 width="300px" height="300px" viewBox="0 0 300 300" style="enable-background:new 0 0 300 300;" xml:space="preserve">
<style type="text/css">
	.st0{fill:#FFFFFF;}
</style>
<g>
	<path class="st0" d="M246.97,154.31l-28.82-42.96c0,0,0-0.01,0-0.01c0-0.35-0.07-0.68-0.18-1c0-0.03,0-0.06,0-0.08
		c-1.98-47.79-41.03-85.23-88.9-85.23c-28.45,0-53.34,12.34-73.98,36.68c-1.07,1.26-0.92,3.16,0.35,4.23
		c1.26,1.07,3.16,0.92,4.23-0.35c19.45-22.93,42.81-34.56,69.41-34.56c43.85,0,79.75,33.7,82.75,77.14h-32.21
		c-1.75,0-3.17,1.42-3.17,3.17s1.42,3.17,3.17,3.17h33.43l29.02,43.25c0.05,0.08,0.11,0.15,0.16,0.22c0.88,1.08,1.05,2.48,0.45,3.74
		c-0.6,1.26-1.79,2.01-3.18,2.01h-17.97c-1.66,0-3,1.34-3,3v28.29c0,12.35-10.04,22.39-22.39,22.39h-21.6c-1.66,0-3,1.34-3,3v13.22
		c0,1.66,1.34,3,3,3s3-1.34,3-3v-10.22h18.6c15.65,0,28.39-12.74,28.39-28.39v-25.29h14.97c3.71,0,7.01-2.08,8.6-5.43
		C249.66,160.99,249.23,157.18,246.97,154.31z"/>
	<path class="st0" d="M187.21,248.87c-0.39-0.94-1.2-1.63-2.19-1.87l-56.53-13.66c-1.71-0.41-3.42,0.64-3.83,2.34
		c-0.41,1.7,0.64,3.42,2.34,3.83l54.97,13.29l6.56,15.78H96.15l7.81-35.54l7.18,1.96c0.95,0.26,1.98,0.06,2.76-0.54
		c0.79-0.6,1.25-1.53,1.25-2.52c0-15.05-5.49-29.59-15.47-40.94c-16.03-18.24-42.8-52.24-43.42-76.48h20.35
		c1.75,0,3.17-1.42,3.17-3.17s-1.42-3.17-3.17-3.17H53.08c-1.75,0-3.17,1.42-3.17,3.17v2.33c0,25.05,24.47,58.15,45.01,81.51
		c8.02,9.13,12.82,20.55,13.73,32.54l-6.23-1.71c-0.84-0.23-1.73-0.1-2.48,0.35c-0.74,0.45-1.27,1.19-1.46,2.04l-9.38,42.66
		c-0.21,0.94,0.02,1.92,0.63,2.67c0.6,0.75,1.51,1.19,2.47,1.19h101.08c1.06,0,2.05-0.53,2.64-1.41c0.59-0.88,0.7-2,0.29-2.98
		L187.21,248.87z"/>
</g>
<g>
	<path class="st0" d="M114.27,101.25c0.54-1.08,1.64-1.75,2.84-1.75s2.3,0.68,2.84,1.75l5.64,11.28l12.46-28.48
		c0.53-1.2,1.75-1.95,3.05-1.9c1.31,0.06,2.45,0.92,2.87,2.17l7.95,23.84h25.54c0.23-0.33,0.47-0.66,0.69-1l0.05-0.07h0
		c3.12-4.78,4.93-10.49,4.93-16.63c0-16.85-13.66-30.51-30.51-30.51c-10.31,0-19.43,5.12-24.95,12.96
		c-5.52-7.83-14.63-12.96-24.95-12.96c-16.85,0-30.51,13.66-30.51,30.51c0,6.13,1.82,11.84,4.93,16.63h0l0.88,1.07h32.8
		L114.27,101.25z"/>
	<path class="st0" d="M146.62,112.35l-6.06-18.18l-11.87,27.12c-0.49,1.13-1.6,1.87-2.83,1.9c-0.03,0-0.05,0-0.08,0
		c-1.2,0-2.3-0.68-2.84-1.75l-5.83-11.66l-1.5,2.99c-0.54,1.08-1.64,1.75-2.84,1.75H83.22l41.09,50.18l47.3-50.18h-21.97
		C148.27,114.52,147.05,113.64,146.62,112.35z"/>
</g>
</svg>
