<?xml version="1.0" encoding="utf-8"?>
<!-- Generator: Adobe Illustrator 25.0.0, SVG Export Plug-In . SVG Version: 6.00 Build 0)  -->
<svg version="1.1" id="Layer_1" xmlns="http://www.w3.org/2000/svg" xmlns:xlink="http://www.w3.org/1999/xlink" x="0px" y="0px"
	 width="300px" height="300px" viewBox="0 0 300 300" style="enable-background:new 0 0 300 300;" xml:space="preserve">
<style type="text/css">
	.st0{fill:#FFFFFF;}
</style>
<g>
	<path class="st0" d="M195.34,25.38c-45.83,0-82.99,37.16-82.99,82.99c0,13.83,3.4,26.86,9.39,38.33l-1.31-1.31l-90.43,90.75
		c-8.75,8.78-8.74,23.06,0.03,31.83c4.26,4.26,9.91,6.6,15.93,6.6c0.01,0,0.01,0,0.02,0c6.02,0,11.69-2.36,15.94-6.63l89.11-89.43
		c12.83,8.12,28.02,12.84,44.32,12.84c45.83,0,82.99-37.16,82.99-82.99S241.17,25.38,195.34,25.38z M57.41,263.47
		c-3.05,3.06-7.12,4.75-11.45,4.76c0,0-0.01,0-0.01,0c-4.32,0-8.38-1.68-11.44-4.74c-6.3-6.3-6.31-16.55-0.02-22.86l89.52-89.84
		c5.59,9.38,12.97,17.57,21.68,24.09L57.41,263.47z M195.34,171.36c-34.73,0-62.99-28.26-62.99-62.99s28.26-62.99,62.99-62.99
		c34.73,0,62.99,28.26,62.99,62.99S230.07,171.36,195.34,171.36z"/>
	<path class="st0" d="M185.13,128.48l-18.37-18.37l-4.49,4.49l20.61,20.61c0.62,0.62,1.43,0.93,2.25,0.93s1.62-0.31,2.25-0.93
		l41.04-41.04l-4.49-4.49L185.13,128.48z"/>
</g>
</svg>
