<?xml version="1.0" encoding="utf-8"?>
<!-- Generator: Adobe Illustrator 25.0.0, SVG Export Plug-In . SVG Version: 6.00 Build 0)  -->
<svg version="1.1" id="Layer_1" xmlns="http://www.w3.org/2000/svg" xmlns:xlink="http://www.w3.org/1999/xlink" x="0px" y="0px"
	 width="300px" height="300px" viewBox="0 0 300 300" style="enable-background:new 0 0 300 300;" xml:space="preserve">
<style type="text/css">
	.st0{fill:#FFFFFF;}
</style>
<g>
	<path class="st0" d="M277.5,188.73v12.09c-12.23,18.82-58.65,29.59-127.72,29.59c-69.09,0-115.51-10.77-127.72-29.59v-12.09h-6.35
		v12.99c0,0.57,0.15,1.13,0.45,1.63c17.33,29.07,91.16,33.41,133.62,33.41c42.45,0,116.26-4.34,133.62-33.41
		c0.29-0.49,0.45-1.05,0.45-1.63v-12.99H277.5z"/>
	<path class="st0" d="M149.78,190.48c-26.06,0-50.57-4.11-71.5-7.96l-3.12-0.57l-1.15,6.25l3.12,0.57
		c21.21,3.9,46.06,8.06,72.65,8.06c26.58,0,51.44-4.16,72.65-8.06l3.12-0.57l-1.15-6.25l-3.12,0.57
		C200.35,186.37,175.83,190.48,149.78,190.48z"/>
	<path class="st0" d="M40.12,173.85c0-45.77,33.63-83.41,83.92-94.33v25.28h6.35V75.75c0-2.41,1.7-4.46,3.95-4.77
		c10.21-1.42,20.67-1.42,30.88,0c2.25,0.31,3.95,2.36,3.95,4.77v29.05h6.35V79.53c50.29,10.92,83.92,48.55,83.92,94.33v3.17h6.35
		v-3.17c0-24.51-8.95-47.19-25.87-65.57c-16.41-17.83-38.79-30.03-64.76-35.33c-1.1-4.28-4.63-7.64-9.07-8.26
		c-10.79-1.5-21.84-1.5-32.63,0c-4.44,0.62-7.97,3.97-9.07,8.26c-25.97,5.3-48.35,17.5-64.76,35.33
		c-16.92,18.39-25.87,41.06-25.87,65.57v3.17h6.35V173.85z"/>
</g>
</svg>
