<?xml version="1.0" encoding="utf-8"?>
<!-- Generator: Adobe Illustrator 25.0.0, SVG Export Plug-In . SVG Version: 6.00 Build 0)  -->
<svg version="1.1" id="Layer_1" xmlns="http://www.w3.org/2000/svg" xmlns:xlink="http://www.w3.org/1999/xlink" x="0px" y="0px"
	 width="300px" height="300px" viewBox="0 0 300 300" style="enable-background:new 0 0 300 300;" xml:space="preserve">
<style type="text/css">
	.st0{fill:#FFFFFF;}
</style>
<path class="st0" d="M257.31,189.48l-1.15-2.77l-5.54,2.3l1.15,2.77c1.32,3.19,1.31,6.71-0.02,9.93s-3.82,5.71-7.01,7.04
	c-0.05,0.02-0.1,0.04-0.15,0.07l-70.55,33.88c-4.57,1.92-9.4,2.9-14.35,2.9H96.92c-4.88,0-9.68,1.33-13.87,3.84l-7.91,4.75
	l0.02-62.4l5.01-2.92c5.62-3.27,12.02-5.01,18.52-5.01l61.09-0.03c7.06,0,12.8,5.74,12.8,12.8c0,4.71-2.56,8.82-6.36,11.04
	l-2.39,1.03c-0.1,0.04-0.19,0.1-0.28,0.16c-1.19,0.37-2.46,0.57-3.78,0.57l-51.07,0.03l0,6.35l51.07-0.03c2,0,3.92-0.31,5.74-0.88
	c0.3-0.04,0.6-0.1,0.9-0.23l81.27-35.15c1.65-0.71,2.41-2.63,1.69-4.27c-0.71-1.65-2.63-2.41-4.27-1.69l-15.15,6.55
	c-0.01-0.06-0.01-0.11-0.03-0.17c-3.2-12.62-14.82-21.57-28.55-22.21c-6.61-8.9-18.43-15.01-30.55-15.89v-14.8
	c4.94-1.53,11.37-5.07,15.59-11.31l0.39,0.06c2.8,0.4,5.49,0.6,8.07,0.6c10.39,0,19-3.23,25.66-9.65
	c18.59-17.93,14.99-54.16,14.83-55.69c-0.11-1.07-0.79-1.99-1.78-2.42c-0.99-0.43-2.13-0.3-2.99,0.33
	c-0.09,0.07-9.68,6.98-29.12,8.06c-10.7,0.6-24.48,4.89-31.04,15.16c-4.9,7.66-5.1,17.32-0.58,28.69l1.11,2.79l5.58-2.21l-1.11-2.79
	c-3.76-9.48-3.74-17.31,0.06-23.25c5.35-8.37,17.53-11.92,26.32-12.4c13.63-0.76,22.84-4.16,27.86-6.62
	c0.3,10.05-0.48,33.69-13.3,46.05c-6.6,6.36-15.71,8.91-27.07,7.62c0.96-2.73,1.53-5.82,1.53-9.3v-3h-6v3
	c0,16.68-15.83,20.65-17.46,21.01c-33.03,3.55-48.48-37.57-48.65-38.02l-1.03-2.82l-5.64,2.05l1.03,2.82
	c0.17,0.47,4.27,11.58,12.97,22.34c0.72,0.9,1.46,1.76,2.21,2.59c-12.77,3.7-23.16,2.6-30.9-3.29
	c-10.09-7.68-14.02-22.58-13.43-33.94c0.97-18.79-3.58-31.34-6.76-37.65c12.48,0.21,44.73,2.59,60.52,20.9
	c8.33,9.65,10.94,22.6,7.76,38.49l-0.59,2.94l5.88,1.18l0.59-2.94c3.56-17.79,0.5-32.45-9.1-43.58
	c-21.63-25.08-68.47-23.04-70.45-22.94c-1.11,0.06-2.09,0.72-2.57,1.73c-0.47,1.01-0.34,2.2,0.33,3.08
	c0.1,0.13,9.69,13.14,8.38,38.49c-0.62,11.99,3.15,29.41,15.79,39.03c5.84,4.45,12.79,6.67,20.78,6.67c5.61,0,11.73-1.1,18.33-3.3
	l0.19-0.06c9.05,8.21,19.33,12.46,30.31,12.46c0.5,0,1.01-0.02,1.52-0.04v13.9c-12.42,0.84-24.04,6.85-30.57,15.9
	c-13.43,0.59-24.77,8.6-28.26,19.79l-7.3,0c-7.62,0-15.13,2.03-21.72,5.87l-1.81,1.05l0-12.41c0-0.86-0.34-1.69-0.95-2.3
	c-0.61-0.61-1.44-0.95-2.3-0.95H40.36v6.5h28.31l-0.02,90.11l-28.32,0.33l0.08,6.5l31.53-0.37c1.78-0.02,3.21-1.47,3.21-3.25l0-7.42
	l11-6.6c3.26-1.96,6.98-2.99,10.78-2.99h62.76c5.79,0,11.43-1.15,16.76-3.4c0.04-0.02,0.09-0.04,0.13-0.06l70.54-33.88
	c4.63-1.94,8.24-5.58,10.18-10.25C259.24,199.31,259.24,194.15,257.31,189.48z M135.86,163.69c1.02,0,1.97-0.52,2.52-1.37
	c5.65-8.74,17.48-14.61,29.45-14.61c11.8,0,23.65,5.88,29.47,14.64c0.56,0.84,1.49,1.34,2.5,1.34c11.67,0,21.67,7.29,24.32,17.72
	c0.1,0.38,0.26,0.72,0.48,1.01l-46.63,20.17c0.62-1.88,0.96-3.88,0.96-5.96c0-10.56-8.59-19.15-19.15-19.15l-47.41,0.02
	C115.87,169.32,125.13,163.69,135.86,163.69z"/>
<path class="st0" d="M108.27,180.67c2.22-11.34,13.73-19.97,27.59-19.97c6.4-9.91,19.29-15.98,31.97-15.98
	c12.51,0,25.53,6.29,31.97,15.98c13.23,0,26.32,11.53,29.23,22.98l-56.21,24.69l2.94-8.91l-0.84-7.92l-2.77-5.01l-4.49-5.85
	L108.27,180.67z"/>
</svg>
